<?xml version="1.0" encoding="UTF-8"?><svg id="Capa_1" xmlns="http://www.w3.org/2000/svg" viewBox="0 0 1171.44 624.92"><path d="M163.17,587.3h-7.1v-126.07l.57-9.5-2.63,9.5-45.8,120.57h-7.33l-45.8-120.57-2.52-9.5.57,9.5v126.07h-7.21v-151.14h7.33l50.38,133.74.92,4.01.92-4.01,50.61-133.74h7.1v151.14Z" style="fill:#0c171d;"/><path d="M229.58,582.95c20.73,0,29.89-13.05,32.98-20.15l6.76,4.58c-9.27,15-20.61,22.67-40.08,22.67-29.66,0-45.57-23.13-45.57-50.95s16.6-48.55,45.23-48.55c25.42,0,42.14,19.12,42.14,45.23,0,1.37-.23,2.75-.23,3.89h-79.35c0,22.21,12.14,43.28,38.13,43.28ZM228.89,497.76c-27.14,0-35.61,19.01-36.87,34.58h70.88c-.46-14.88-8.36-34.58-34.01-34.58Z" style="fill:#0c171d;"/><path d="M368.35,587.3v-20.84c-.69,6.87-16.49,23.59-39.62,23.59-25.08,0-45.57-17.63-45.57-49.69s20.5-49.81,45.57-49.81c22.9,0,38.47,15.92,39.27,23.7v-84.5h7.67v157.55h-7.33ZM328.04,582.72c21.76,0,39.96-16.26,39.96-42.37s-18.21-42.48-39.96-42.48c-19.58,0-37.33,15.92-37.33,42.48s17.75,42.37,37.33,42.37Z" style="fill:#0c171d;"/><path d="M398.8,442.8c0-4.24,3.44-7.56,7.44-7.56s7.79,3.32,7.79,7.56-3.55,7.44-7.79,7.44-7.44-3.32-7.44-7.44ZM402.47,493.3h7.33v94.01h-7.33v-94.01Z" style="fill:#0c171d;"/><path d="M453.84,537.21c12.4,19.88,24.58,29.5,40.61,29.71,14.32,0,26.5-8.34,26.5-25.22s-15.18-21.59-31.63-26.72c-26.08-7.91-50.23-17.1-49.8-47.45.64-40.61,35.05-47.24,51.3-47.24,22.44,0,37.62,8.12,50.66,23.51l-19.67,16.89c-9.62-9.83-18.6-16.46-30.99-16.46-7.05,0-20.73,3.21-21.59,23.51-.64,13.25,13.47,18.38,28.64,22.66,25.86,8.12,52.8,18.6,52.8,51.3s-27.15,49.16-56.86,49.16c-27.15-.86-45.74-11.33-60.92-35.27l20.95-18.38Z" style="fill:#29b8ce;"/><path d="M652.83,489.97l-18.81,17.74s-9.19-17.31-22.02-17.31c-11.11,0-23.94,13.25-23.94,40.61,0,20.09,8.98,36.76,22.87,36.76,5.98,0,12.18-1.5,26.93-15.39l17.31,16.46c-19.45,20.09-32.49,21.37-44.25,21.37-31.21,0-51.73-25.65-51.73-59.21,0-43.82,29.07-63.06,53.22-63.06,26.29,0,40.4,22.02,40.4,22.02Z" style="fill:#29b8ce;"/><path d="M683.82,423.28c9.19,0,16.03,5.98,16.03,14.11s-6.84,14.11-16.03,14.11-16.46-5.98-16.46-14.11,7.05-14.11,16.46-14.11ZM697.93,470.31v117.56h-28.64v-117.56h28.64Z" style="fill:#29b8ce;"/><path d="M767.82,467.96c46.6,0,50.44,44.03,50.44,52.58v11.54h-75.02c0,21.59,8.98,36.12,25.44,36.12,4.92,0,15.18.64,33.34-22.87l17.74,16.67c-23.73,29.28-41.68,28.21-51.08,28.21-35.91,0-53.86-27.79-53.86-59.85,0-33.99,20.73-62.41,53.01-62.41ZM746.87,509.64h41.47c-2.35-9.19-8.12-19.66-20.52-19.66-10.05,0-16.67,7.69-20.95,19.66Z" style="fill:#29b8ce;"/><path d="M832.58,587.87v-117.56h28.86v14.96c11.76-8.76,26.72-17.31,42.11-17.31,22.23,0,31.21,14.32,31.21,37.83v82.08h-28.64v-82.08c0-31.85-35.91,1.5-44.67,9.62v72.46h-28.86Z" style="fill:#29b8ce;"/><path d="M1043.54,489.97l-18.81,17.74s-9.19-17.31-22.02-17.31c-11.11,0-23.94,13.25-23.94,40.61,0,20.09,8.98,36.76,22.87,36.76,5.98,0,12.18-1.5,26.93-15.39l17.31,16.46c-19.45,20.09-32.49,21.37-44.25,21.37-31.21,0-51.73-25.65-51.73-59.21,0-43.82,29.07-63.06,53.22-63.06,26.29,0,40.4,22.02,40.4,22.02Z" style="fill:#29b8ce;"/><path d="M1106.16,467.96c46.6,0,50.44,44.03,50.44,52.58v11.54h-75.02c0,21.59,8.98,36.12,25.44,36.12,4.92,0,15.18.64,33.34-22.87l17.74,16.67c-23.73,29.28-41.68,28.21-51.09,28.21-35.91,0-53.86-27.79-53.86-59.85,0-33.99,20.73-62.41,53.01-62.41ZM1085.22,509.64h41.47c-2.35-9.19-8.12-19.66-20.52-19.66-10.05,0-16.67,7.69-20.95,19.66Z" style="fill:#29b8ce;"/><path d="M594.88,251.07c-24.83,0-41.78-15.03-41.78-40.21,0-21.74,14.66-38.49,39.95-38.49,23.73,0,38.76,13.77,38.76,38.67,0,1,0,4.98-.27,5.89h-56.16c.37,9.96,7.79,17.12,20.98,17.12h24.89l17.11,17.03h-43.46ZM593.32,188.58c-11.64,0-16.86,7.79-17.41,14.04h33.72c-.28-5.71-4.76-14.04-16.31-14.04Z" style="fill:#29b8ce;"/><path d="M644.05,66.16c-44.27-15.7-87.29-11.46-122.55,6.04l22.02,22.02-68.68,68.68-22.02-22.02c-17.51,35.27-21.74,78.28-6.04,122.55,14.25,40.18,45.71,72.1,85.8,86.62,126.69,45.89,243.99-71.41,198.1-198.1-14.52-40.09-46.44-71.55-86.62-85.8ZM536.69,267.2l-44.16-86.67,68.78-68.78,86.67,44.16,37.7,148.99-148.99-37.7Z" style="fill:#29b8ce;"/><path d="M645.63,66.73c-44.83-16.37-88.45-12.24-124.14,5.47l22.02,22.02-68.68,68.68-22.02-22.02c-17.71,35.69-21.84,79.31-5.47,124.14,14.64,40.1,46.72,71.55,87.01,85.67,125.41,43.95,240.91-71.54,196.96-196.96-14.12-40.28-45.58-72.37-85.67-87.01ZM536.69,267.2l-44.16-86.67,68.78-68.78,86.67,44.16,37.7,148.99-148.99-37.7Z" style="fill:#29b8ce;"/><rect x="652.59" y="220.91" width="9.18" height="110.98" transform="translate(-2.96 545.65) rotate(-45)" style="fill:#29b8ce;"/></svg>