<svg width="2100" height="600" viewBox="0 0 2100 600" fill="none" xmlns="http://www.w3.org/2000/svg">
<g clip-path="url(#clip0_263_316)">
<mask id="mask0_263_316" style="mask-type:alpha" maskUnits="userSpaceOnUse" x="0" y="0" width="2100" height="600">
<rect width="2100" height="600" fill="url(#paint0_linear_263_316)"/>
</mask>
<g mask="url(#mask0_263_316)">
<path fill-rule="evenodd" clip-rule="evenodd" d="M2100 0H0V504.289C236.526 424.168 527.651 449.553 656.065 513.721C677.218 524.271 700.672 535.169 724.174 532.633C761.822 528.591 773.984 497.667 786.46 465.943L786.46 465.942C792.479 450.639 798.57 435.15 807.631 422.402C866.153 340.08 986.224 407.247 1118.65 481.327C1229.78 543.491 1349.61 610.524 1449.08 598.176C1531.65 587.926 1590.98 536.714 1647.92 487.571C1722.08 423.568 1792.17 363.076 1904.21 401.151C1982.11 427.637 2051 478.74 2100 539.857V0Z" fill="url(#paint1_linear_263_316)"/>
</g>
</g>
<defs>
<linearGradient id="paint0_linear_263_316" x1="1245.42" y1="419.407" x2="1248.16" y2="51.1743" gradientUnits="userSpaceOnUse">
<stop stop-color="#FDFBFA"/>
<stop offset="1" stop-color="#FDFBFA" stop-opacity="0"/>
</linearGradient>
<linearGradient id="paint1_linear_263_316" x1="1770" y1="299.829" x2="330" y2="299.829" gradientUnits="userSpaceOnUse">
<stop stop-color="#00BCD4"/>
<stop offset="1" stop-color="#8E44AD" stop-opacity="0.22"/>
</linearGradient>
<clipPath id="clip0_263_316">
<rect width="2100" height="600" fill="white"/>
</clipPath>
</defs>
</svg>
