<?xml version="1.0" encoding="UTF-8"?>
<svg id="Capa_1" xmlns="http://www.w3.org/2000/svg" xmlns:xlink="http://www.w3.org/1999/xlink" version="1.1" viewBox="0 0 1441 1077">
  <!-- Generator: Adobe Illustrator 29.3.1, SVG Export Plug-In . SVG Version: 2.1.0 Build 151)  -->
  <defs>
    <style>
      .st0 {
        fill: url(#Degradado_sin_nombre_7);
        fill-opacity: .2;
      }

      .st1 {
        fill: #00BCD4;
      }
    </style>
    <linearGradient id="Degradado_sin_nombre_7" data-name="Degradado sin nombre 7" x1="-751.5" y1="281.7" x2="1464.5" y2="-96" gradientTransform="translate(0 507.8)" gradientUnits="userSpaceOnUse">
      <stop offset=".3" stop-color="#00BCD4"/>
      <stop offset=".7" stop-color="#00BCD4" stop-opacity=".3"/>
      <stop offset="1" stop-color="#00BCD4" stop-opacity="0"/>
    </linearGradient>
  </defs>
  <path class="st0" d="M229,944.5c26.1-8.5,54.1-29.4,83.6-19.3,33.2,11.4,40.8,53.9,59.8,83.4,58.6,91.3,173,79,253.6,33.8,58.6-32.8,55-97.8,64.5-156.2,6.9-42.2,33.2-89.4,75.9-90,64-1,127.4,112.1,177.1,146.2,58.3,40,129.4,59.4,194.1,21.2,255.9-151.6,323.5-557.3,148.8-792.6C1168.3,12,927.4-54.1,759.4,50.8c-92,57.4-151.4,153.4-212.5,242.9-8.3,12.2-17.8,25.1-32,29.2-33.6,9.7-55.9-33.5-85.2-52.7-113-74.1-225.6,173.7-327.9,188.7-100,14.7-202.4-49.7-291.1,43.2-83.7,87.7-65.1,264.5,19.2,346,41.2,39.9,109.4,61.8,165.6,41.3,40.2-14.6,102.5-110.5,145.6-98.7,62,17,7.4,92.4,30.5,130.3,17.8,29.1,36.9,30.1,57.2,23.5h.2Z"/>
  <circle class="st1" cx=".8" cy="609.2" r="112"/>
  <circle class="st1" cx="97.7" cy="742.1" r="15.1"/>
</svg>