<?xml version="1.0" encoding="UTF-8"?>
<svg id="Capa_1" data-name="Capa 1" xmlns="http://www.w3.org/2000/svg" xmlns:xlink="http://www.w3.org/1999/xlink" viewBox="0 0 1441 839">
  <defs>
    <style>
      .cls-1 {
        fill: url(#Degradado_sin_nombre);
        fill-opacity: .2;
      }

      .cls-2 {
        fill: #8E44AD;
      }
    </style>
    <linearGradient id="Degradado_sin_nombre" data-name="Degradado sin nombre" x1="-355.64" y1="952.47" x2="1507.95" y2="1270.1" gradientTransform="translate(0 1585.8) scale(1 -1)" gradientUnits="userSpaceOnUse">
      <stop offset=".3" stop-color="#00BCD4"/>
      <stop offset=".7" stop-color="#8E44AD" stop-opacity=".3"/>
      <stop offset="1" stop-color="#8E44AD" stop-opacity="0"/>
    </linearGradient>
  </defs>
  <path class="cls-1" d="M467.65,735.64c22-6.62,45.61-22.9,70.48-15.03,27.99,8.88,34.4,41.98,50.41,64.96,49.4,71.11,145.85,61.53,213.8,26.33,49.4-25.55,46.37-76.17,54.38-121.66,5.82-32.87,27.99-69.63,63.99-70.1,53.95-.78,107.4,87.31,149.3,113.87,49.15,31.15,109.09,46.27,163.63,16.51,215.73-118.08,272.72-434.07,125.44-617.33-99.56-123.84-302.65-175.32-444.28-93.62-77.56,44.71-127.64,119.48-179.15,189.19-7,9.5-15.01,19.55-26.98,22.74-28.33,7.56-47.13-26.09-71.83-41.05-95.26-57.71-190.19,135.29-276.43,146.97-84.3,11.45-170.63-38.71-245.41,33.65-70.56,68.31-54.88,206.01,16.19,269.49,34.73,31.08,92.23,48.13,139.61,32.17,33.89-11.37,86.41-86.07,122.75-76.87,52.27,13.24,6.24,71.97,25.71,101.49,15.01,22.67,31.11,23.44,48.22,18.3h.17,0Z"/>
  <g>
    <circle class="cls-2" cx="91.14" cy="564.08" r="84.39"/>
    <circle class="cls-2" cx="175.54" cy="681.88" r="15.1"/>
  </g>
</svg>